HIERARCHY
ROOT simHips
{
  OFFSET 3.83016 105.439 30.471
  CHANNELS 6 Xposition Yposition Zposition Zrotation Xrotation Yrotation
  JOINT simSpine
  {
    OFFSET -0.000355721 21.3001 -0.016921
    CHANNELS 3 Zrotation Xrotation Yrotation
    JOINT simLeftArm
    {
      OFFSET 13.5181 21.3012 0
      CHANNELS 3 Zrotation Xrotation Yrotation
      JOINT simLeftForeArm
      {
        OFFSET 24.5783 0 0
        CHANNELS 3 Zrotation Xrotation Yrotation
        JOINT simLeftHand
        {
          OFFSET 24.5783 0 0
          CHANNELS 3 Zrotation Xrotation Yrotation
          End Site
          {
            OFFSET 7.32568 1.52588e-005 0.0169305
          }
        }
      }
    }
    JOINT simHead
    {
      OFFSET 0 27.4458 -0.00489235
      CHANNELS 3 Zrotation Xrotation Yrotation
      End Site
      {
        OFFSET 0 0 0
      }
    }
    JOINT simRightArm
    {
      OFFSET -13.5174 21.3012 0
      CHANNELS 3 Zrotation Xrotation Yrotation
      JOINT simRightForeArm
      {
        OFFSET -24.5783 0 0
        CHANNELS 3 Zrotation Xrotation Yrotation
        JOINT simRightHand
        {
          OFFSET -24.5783 0 0
          CHANNELS 3 Zrotation Xrotation Yrotation
          End Site
          {
            OFFSET -7.32568 1.52588e-005 0.0169305
          }
        }
      }
    }
  }
  JOINT simRightUpLeg
  {
    OFFSET -8.44614 -9.41038 0.835684
    CHANNELS 3 Zrotation Xrotation Yrotation
    JOINT simRightLeg
    {
      OFFSET 0 -40.9639 0
      CHANNELS 3 Zrotation Xrotation Yrotation
      JOINT simRightFoot
      {
        OFFSET 0 -40.9639 0
        CHANNELS 3 Zrotation Xrotation Yrotation
        End Site
        {
          OFFSET 0.50614 -9.67405 14.6709
        }
      }
    }
  }
  JOINT simLeftUpLeg
  {
    OFFSET 8.44614 -9.41038 0.835684
    CHANNELS 3 Zrotation Xrotation Yrotation
    JOINT simLeftLeg
    {
      OFFSET 0 -40.9639 0
      CHANNELS 3 Zrotation Xrotation Yrotation
      JOINT simLeftFoot
      {
        OFFSET 0 -40.9639 0
        CHANNELS 3 Zrotation Xrotation Yrotation
        End Site
        {
          OFFSET -0.50614 -9.67405 14.6709
        }
      }
    }
  }
}
MOTION
Frames:	17
Frame Time:	0.0333333
-5.84081 102.825 31.8455 1.29899 -4.27681 1.91664 -2.44607 13.3613 3.51021 -33.4089 41.0631 -46.6864 27.7389 -29.2331 -66.0264 1.27297 -30.2668 4.70448 5.55353 -26.9341 0.194035 19.4389 16.4254 49.6487 -28.3928 -34.1447 73.9368 -1.87871 35.786 5.81455 -3.7231 -6.3058 7.30537 -0.236488 36.536 0.392268 -12.589 -20.5938 -27.6288 7.17512 -7.49087 -5.57333 0.172422 31.2605 -0.429923 2.50345 -15.1137 2.06448 
-6.56564 102.961 32.1633 0.644585 -4.06874 5.12194 -2.43502 12.2637 4.02031 -36.689 38.9827 -42.2734 27.8739 -29.9068 -67.1 1.18603 -29.3326 4.52954 5.10773 -26.1935 0.736879 12.1518 15.1087 51.0221 -28.3838 -33.9824 73.6709 -2.58904 40.7689 6.96012 -2.65976 -5.00273 5.34081 -0.21542 35.1471 0.373668 -12.9418 -20.3187 -28.6763 8.43458 -8.32054 -6.78289 0.163253 30.7476 -0.417771 2.08104 -14.2268 0.56375 
-7.10701 103.101 32.6295 -0.186753 -4.05483 7.94552 -2.27426 11.1108 4.77035 -40.4474 37.2772 -37.3291 27.9317 -30.2198 -67.5996 1.0156 -27.3607 4.17065 5.07267 -25.3184 0.685766 5.23335 13.7244 51.6425 -28.3678 -33.7273 73.2539 -3.16675 44.0587 7.81629 -1.1658 -3.23496 4.08807 -0.191143 33.3554 0.359718 -13.9796 -20.9882 -30.1576 9.74773 -8.92968 -7.15964 0.157742 30.3804 -0.410832 1.73302 -13.5845 -0.749002 
-7.40144 103.203 33.0549 -0.60817 -3.98228 10.3634 -2.66464 10.1485 5.74296 -43.4519 35.4944 -32.8186 27.9148 -30.1264 -67.4506 0.846001 -25.1742 3.78749 5.07025 -25.1045 0.049861 -0.0148392 11.484 51.666 -28.3451 -33.4122 72.7392 -3.26567 44.5696 7.95789 0.0652242 -1.84934 3.91711 -0.172531 31.8295 0.346799 -15.2857 -21.1694 -32.5662 10.3262 -9.68755 -6.95494 0.158526 30.4679 -0.410784 1.6531 -13.1469 -0.993869 
-7.36887 103.352 33.55 -0.823628 -3.78748 12.6223 -3.10477 8.88258 6.19323 -47.2625 33.8706 -27.0105 27.8222 -29.6405 -66.6753 0.677473 -22.712 3.37232 5.10881 -24.5037 -0.561199 -3.23209 8.44574 51.3009 -28.267 -32.5624 71.3615 -3.39351 45.2101 8.13902 0.721842 -0.493914 3.40033 -0.153601 30.1626 0.339069 -16.2414 -21.364 -34.172 10.3504 -10.4986 -6.33389 0.162598 30.719 -0.415269 1.7699 -13.0549 -0.343593 
-7.10384 103.445 34.0627 -1.17564 -3.63361 14.6635 -3.33092 7.76692 6.98546 -49.515 32.0942 -23.1497 27.4781 -28.091 -64.2091 0.592302 -21.3252 3.14516 4.99378 -24.2797 -1.35268 -5.06215 4.59142 50.3232 -28.1356 -31.4928 69.6379 -3.49442 45.7008 8.28061 1.48366 0.959167 3.36221 -0.134718 28.2002 0.331894 -17.3333 -21.2365 -36.3017 10.3976 -11.3223 -5.74797 0.171814 31.2655 -0.426102 1.83838 -13.2024 0.153662 
-6.56899 103.519 34.5891 -1.2977 -3.43578 16.1787 -3.74125 6.6902 8.1402 -51.8223 30.5598 -18.8723 26.9892 -26.3022 -61.3622 0.546788 -20.5355 3.01776 4.78032 -24.2287 -2.37364 -6.08404 0.223386 49.1972 -27.929 -30.2046 67.5754 -3.28537 44.6698 7.98594 1.67505 2.24896 3.23713 -0.119516 26.479 0.326259 -18.0239 -21.0758 -37.697 10.0902 -11.7008 -6.21234 0.174849 31.3828 -0.430176 1.71864 -13.3053 -0.316689 
-5.92728 103.539 35.0819 -1.75998 -3.20759 17.5488 -3.82373 5.64714 9.3013 -53.7979 28.7991 -14.8425 26.2224 -24.0193 -57.7085 0.454906 -18.8165 2.7449 4.63521 -25.1221 -3.05815 -6.59326 -4.46381 47.822 -27.6281 -28.7264 65.2198 -2.85577 42.3574 7.36211 2.26127 3.31335 3.55086 -0.107087 25.0683 0.322164 -19.1942 -21.3409 -39.3009 10.2355 -11.9329 -7.15942 0.172891 31.1851 -0.428579 1.45321 -13.5539 -1.40861 
-5.11 103.552 35.4628 -1.92318 -2.90574 19.3086 -4.27633 4.9125 10.1466 -55.0893 27.2592 -11.8708 25.1317 -21.3814 -53.4196 0.398212 -17.655 2.56374 5.0824 -26.7401 -3.34224 -6.58038 -9.63565 45.8477 -27.2208 -27.105 62.6406 -2.79934 42.032 7.27811 2.39103 3.89793 3.37504 -0.100181 24.4222 0.320585 -19.972 -21.0534 -40.8324 9.77444 -12.1041 -8.95483 0.166483 30.5851 -0.423338 1.19187 -13.5074 -2.54754 
-4.10325 103.633 35.8656 -2.0029 -2.59193 21.0345 -4.88484 4.24016 10.9254 -56.3639 25.5054 -8.95965 23.8078 -18.7424 -49.0071 0.325115 -16.0114 2.31134 6.2147 -28.5943 -3.3979 -5.89927 -15.1293 44.3955 -26.631 -25.1756 59.5636 -2.90964 42.6631 7.44184 2.33064 4.64174 3.70743 -0.092884 23.6535 0.319145 -20.6907 -20.7082 -42.3118 8.96264 -12.0521 -11.1316 0.160012 30.0494 -0.417069 1.09591 -13.7357 -2.9729 
-3.06404 103.812 36.1705 -2.21745 -2.16611 23.2012 -5.54312 3.64683 11.1957 -57.5347 23.1539 -6.22871 22.36 -16.3075 -44.7738 0.247776 -14.0328 2.013 7.50668 -30.9528 -3.37678 -4.33554 -20.7136 43.4857 -25.8425 -23.0375 56.1229 -2.63965 41.0804 7.03738 2.31754 5.16076 3.89816 -0.0871897 23.0383 0.318575 -21.2213 -20.3058 -43.5515 8.09848 -12.4584 -13.2682 0.154053 29.5887 -0.410769 1.02992 -13.677 -3.32805 
-1.94863 104.068 36.5275 -2.86051 -1.92104 25.472 -5.73898 2.753 11.3363 -58.5735 20.9005 -3.83219 20.6217 -13.8144 -40.2115 0.191409 -12.3694 1.7662 8.30006 -31.7583 -4.51886 -1.10813 -26.4517 43.7723 -24.875 -20.8303 52.5102 -2.45325 39.9079 6.75035 2.62508 5.6437 3.44713 -0.0848212 22.5518 0.319715 -21.3155 -20.0407 -43.9744 7.80338 -12.8611 -14.9719 0.148928 29.2296 -0.404785 0.855734 -13.5936 -4.13243 
-0.872715 104.383 36.8384 -4.07348 -1.97689 27.5509 -5.29107 1.94537 11.4083 -59.5838 17.9233 -2.41097 18.6309 -11.3815 -35.4514 0.157569 -11.2424 1.60081 8.51663 -32.4537 -6.18104 3.89593 -32.2897 46.159 -23.7344 -18.6092 48.78 -1.91633 36.0835 5.87866 3.56698 5.46091 2.94026 -0.0850095 22.7144 0.307081 -20.5131 -18.9043 -44.2156 8.36428 -13.2727 -16.0167 0.142629 28.7185 -0.398208 0.660958 -13.3012 -5.07698 
0.218605 104.7 37.2019 -4.72297 -2.30031 29.5613 -5.28741 1.4539 11.5539 -60.1323 15.5783 -1.52332 16.7887 -9.44119 -31.356 0.158719 -11.2826 1.6067 8.49656 -32.6266 -8.11948 10.7327 -38.0709 50.444 -22.6871 -16.8248 45.6892 -1.70538 34.3555 5.51291 3.97392 5.47126 2.28655 -0.0893644 23.446 0.295597 -19.2755 -17.7372 -43.8464 8.47025 -12.9962 -17.347 0.133738 28.0317 -0.388223 0.526197 -12.9551 -5.84315 
1.32395 105.055 37.5212 -5.28723 -2.97172 31.3963 -4.96557 1.32118 11.7803 -60.3909 13.9404 -1.27355 14.9487 -7.74602 -27.4831 0.145966 -10.827 1.54019 8.21459 -32.7828 -9.98572 18.1034 -42.7603 56.3941 -21.6785 -15.282 42.9295 -1.47552 32.2864 5.09455 4.24453 5.52608 1.44118 -0.0939814 24.375 0.272357 -16.9096 -15.6853 -42.9272 8.57785 -12.3005 -18.9054 0.124851 27.3295 -0.378073 0.531889 -12.8398 -5.93036 
2.34292 105.337 37.7972 -5.8747 -3.42664 32.8685 -4.62206 0.779345 12.2908 -60.3459 14.4799 -1.2759 13.4578 -6.52519 -24.4694 0.200235 -12.6456 1.80696 7.64006 -32.8862 -11.9571 24.7862 -45.7113 62.4789 -20.7163 -13.9402 40.4485 -1.28661 30.4095 4.73148 4.43356 5.15 1.34314 -0.100816 25.4918 0.256184 -14.4838 -13.341 -42.2491 8.77969 -11.8431 -19.9737 0.117755 26.7361 -0.370116 0.488587 -12.8245 -6.20285 
3.19568 105.557 38.0322 -6.10461 -3.87434 33.8797 -4.68177 0.655839 12.5662 -60.3507 12.4488 -1.42894 11.945 -5.41014 -21.5035 0.12378 -9.98168 1.41735 7.8249 -33.1141 -12.7067 29.7498 -47.0061 67.8984 -19.9188 -12.9099 38.483 -1.257 30.0985 4.6727 4.28987 4.81646 1.22937 -0.111714 26.7946 0.257495 -12.4591 -11.4795 -41.2007 8.87475 -11.289 -20.2775 0.110129 26.3145 -0.358501 0.437007 -12.1317 -6.83709 
